<svg width="23" height="22" viewBox="0 0 23 22" fill="none" xmlns="http://www.w3.org/2000/svg">
<path d="M3.56641 8H19.5664V19C19.5664 20.1046 18.671 21 17.5664 21H5.56641C4.46184 21 3.56641 20.1046 3.56641 19V8Z" stroke="#919EAB" stroke-width="2" stroke-linecap="round" stroke-linejoin="round"/>
<path d="M2.98556 2.22703L1.72841 5.22703C1.17617 6.54489 2.14411 8 3.573 8H19.6319C21.0415 8 22.0088 6.58074 21.4934 5.26869L20.3148 2.2687C20.0141 1.50333 19.2756 1 18.4533 1H4.83015C4.02422 1 3.29703 1.48373 2.98556 2.22703Z" stroke="#919EAB" stroke-width="2" stroke-linecap="round" stroke-linejoin="round"/>
<line x1="11.5664" y1="2" x2="11.5664" y2="7" stroke="#919EAB" stroke-width="2"/>
<line x1="7.56641" y1="2" x2="7.56641" y2="7" stroke="#919EAB" stroke-width="2"/>
<line x1="15.5664" y1="2" x2="15.5664" y2="7" stroke="#919EAB" stroke-width="2"/>
<path d="M8.56641 20V16.9999C8.56641 15.9999 8.56641 15 10.0664 15C11.5664 15 11.5664 15 13.0664 15C14.5664 15 14.5664 15.9999 14.5664 16.9999C14.5664 18.2 14.5664 19.3333 14.5664 20" stroke="#919EAB" stroke-width="2"/>
</svg>
