<svg width="0" height="0" class="hidden">
  <symbol viewBox="0 0 27 25" fill="none" xmlns="http://www.w3.org/2000/svg" id="shipping">
    <path d="M22.29 8.86a2 2 0 0 0-1.792-1.11h-3.2V5.928h-2.137a3.01 3.01 0 0 0 .331-.588c.406-.975.264-2.03-.386-2.68-.406-.406-.974-.63-1.603-.63-.853 0-1.705.407-2.396 1.178C10.174 1.117 8.49 0 6.865 0c-.812 0-1.543.284-2.07.812-.833.832-1.015 2.213-.488 3.512.142.324.467.974 1.117 1.603H2.856a2 2 0 0 0-2 2V20.37a2 2 0 0 0 2 2h1.22a3.335 3.335 0 0 0 3.201 2.42 3.335 3.335 0 0 0 3.202-2.42h6.362a3.335 3.335 0 0 0 3.201 2.42 3.335 3.335 0 0 0 3.202-2.42h1.789a1.824 1.824 0 0 0 1.823-1.823v-3.308a4 4 0 0 0-1.203-2.86l-1.21-1.184-2.154-4.333zM7.276 22.886a1.428 1.428 0 1 1 0-2.855 1.428 1.428 0 0 1 0 2.855zm2.65-3.439a3.325 3.325 0 0 0-2.65-1.32 3.335 3.335 0 0 0-3.201 2.418h-.394a1 1 0 0 1-.999-1V8.774a1 1 0 0 1 1-1h5.212l-2.558 2.558v.164c0 .89 1.077 1.337 1.707.707l1.883-1.882v10.125zM9.97 5.948h-.325c-2.07-.305-3.228-1.34-3.634-2.315-.243-.608-.223-1.217.082-1.522.243-.244.548-.284.791-.284 1.178 0 2.76 1.279 3.086 4.1v.02zm7.328 4.627a1 1 0 0 1 1-1h1.684a1 1 0 0 1 .895.554l.925 1.857a1 1 0 0 1-.895 1.446h-2.61a1 1 0 0 1-1-1v-1.857zm-3.796-6.718c.08 0 .223.02.304.101.102.102.122.366 0 .69-.223.528-.832 1.097-1.928 1.32h-.081c.284-1.462 1.096-2.111 1.705-2.111zm6.54 19.028a1.428 1.428 0 1 1 0-2.856 1.428 1.428 0 0 1 0 2.856zm4.99-3.34a1 1 0 0 1-1 1h-.789a3.335 3.335 0 0 0-3.202-2.42 3.335 3.335 0 0 0-3.206 2.437l-5.086-.007V9.189l.188.187c.63.63 1.707.184 1.707-.707v-.164l-.731-.73h1.56a1 1 0 0 1 1 1v4.657c0 1.007.817 1.824 1.825 1.824h5.842a1.892 1.892 0 0 1 1.892 1.891v2.399z" fill="#919EAB"></path>
  </symbol>
  <symbol viewBox="0 0 24 20" fill="none" xmlns="http://www.w3.org/2000/svg" id="postbox">
    <path d="M2.336 4a3 3 0 0 1 3-3h14a3 3 0 0 1 3 3v12a3 3 0 0 1-3 3h-14a3 3 0 0 1-3-3V4z" stroke="#919EAB" stroke-width="2" stroke-linecap="round" stroke-linejoin="round"></path>
    <path stroke="#919EAB" stroke-width="2" d="M7.336 2v16m0-13h-4m18 0h-4m-10 4h-4m18 0h-4m-10 4h-4m18 0h-4m0-11v16"></path>
    <rect x="10.336" y="12" width="4" height="4" rx="1" fill="#919EAB"></rect>
    <path stroke="#919EAB" stroke-width="2" stroke-linecap="round" d="M11.336 10h2"></path>
  </symbol>
  <symbol viewBox="0 0 23 22" fill="none" xmlns="http://www.w3.org/2000/svg" id="pickup">
    <path d="M3.566 8h16v11a2 2 0 0 1-2 2h-12a2 2 0 0 1-2-2V8z" stroke="#919EAB" stroke-width="2" stroke-linecap="round" stroke-linejoin="round"></path>
    <path d="M2.986 2.227l-1.258 3A2 2 0 0 0 3.573 8h16.059a2 2 0 0 0 1.861-2.731l-1.178-3A2 2 0 0 0 18.453 1H4.83a2 2 0 0 0-1.844 1.227z" stroke="#919EAB" stroke-width="2" stroke-linecap="round" stroke-linejoin="round"></path>
    <path stroke="#919EAB" stroke-width="2" d="M11.566 2v5m-4-5v5m8-5v5m-7 13v-3c0-1 0-2 1.5-2h3c1.5 0 1.5 1 1.5 2v3"></path>
  </symbol>
</svg>