<svg width="27" height="25" viewBox="0 0 27 25" fill="none" xmlns="http://www.w3.org/2000/svg">
<path d="M22.2892 8.86087C21.9513 8.18082 21.2575 7.75078 20.4981 7.75078H17.2986V5.92727H15.1606C15.2966 5.73104 15.4135 5.53484 15.492 5.33861C15.898 4.36427 15.7559 3.30873 15.1063 2.65916C14.7003 2.25316 14.132 2.02988 13.5027 2.02988C12.6501 2.02988 11.7976 2.43588 11.1074 3.20722C10.1737 1.11642 8.48888 0 6.8649 0C6.05303 0 5.32226 0.28416 4.79449 0.811961C3.96217 1.64419 3.77951 3.02454 4.30728 4.32365C4.44939 4.64845 4.77416 5.29799 5.4237 5.92726H2.85645C1.75188 5.92726 0.856445 6.82269 0.856445 7.92726V20.3694C0.856445 21.474 1.75188 22.3694 2.85644 22.3694H4.07543C4.47341 23.7639 5.75646 24.7889 7.27699 24.7889C8.79751 24.7889 10.0806 23.7639 10.4785 22.3694H16.8408C17.2388 23.7639 18.5218 24.7889 20.0424 24.7889C21.5629 24.7889 22.846 23.7639 23.2439 22.3694H25.0327C26.0399 22.3694 26.8564 21.5529 26.8564 20.5457V17.2377C26.8564 16.1611 26.4225 15.13 25.6526 14.3774L24.4422 13.1942L22.2892 8.86087ZM7.27699 22.8851C6.48842 22.8851 5.84915 22.2459 5.84915 21.4573C5.84915 20.6687 6.48842 20.0295 7.27699 20.0295C8.06556 20.0295 8.70482 20.6687 8.70482 21.4573C8.70482 22.2459 8.06557 22.8851 7.27699 22.8851ZM9.9267 19.446C9.31765 18.6456 8.35809 18.1257 7.27699 18.1257C5.75676 18.1257 4.4739 19.1503 4.07564 20.5444L3.68204 20.5439C3.1303 20.5431 2.68342 20.0956 2.68342 19.5439V8.77448C2.68342 8.22219 3.13114 7.77448 3.68342 7.77448H8.89487L6.33714 10.3321V10.4959C6.33714 11.3868 7.41428 11.833 8.04424 11.203L9.92671 9.32054L9.9267 19.446ZM9.97074 5.94756H9.64585C7.57545 5.6431 6.41835 4.60784 6.01236 3.63349C5.7688 3.02452 5.78914 2.41557 6.09358 2.11107C6.33713 1.86749 6.64168 1.82688 6.88523 1.82688C8.06254 1.82688 9.64584 3.10572 9.97073 5.92725L9.97074 5.94756ZM17.2986 10.5745C17.2986 10.0222 17.7463 9.5745 18.2986 9.5745H19.9826C20.3619 9.5745 20.7085 9.7891 20.8777 10.1286L21.8029 11.986C22.1341 12.6508 21.6506 13.4319 20.9078 13.4319H18.2986C17.7463 13.4319 17.2986 12.9842 17.2986 12.4319V10.5745ZM13.5027 3.8568C13.5839 3.8568 13.726 3.87707 13.8072 3.95829C13.9087 4.05976 13.929 4.32365 13.8072 4.64845C13.5839 5.17622 12.9749 5.74459 11.8788 5.96787H11.7976C12.0818 4.50634 12.8937 3.8568 13.5027 3.8568ZM20.0424 22.8851C19.2538 22.8851 18.6145 22.2459 18.6145 21.4573C18.6145 20.6687 19.2538 20.0295 20.0424 20.0295C20.831 20.0295 21.4702 20.6687 21.4702 21.4573C21.4702 22.2459 20.831 22.8851 20.0424 22.8851ZM25.0327 19.5457C25.0327 20.098 24.585 20.5457 24.0327 20.5457H23.2441C22.8462 19.1509 21.5631 18.1257 20.0424 18.1257C18.5158 18.1257 17.229 19.159 16.8365 20.562L11.7504 20.555V9.18881L11.9377 9.37607C12.5676 10.006 13.6448 9.55987 13.6448 8.66897V8.50525L12.914 7.77448H14.4749C15.0272 7.77448 15.4749 8.2222 15.4749 8.77448V13.4319C15.4749 14.4391 16.2914 15.2556 17.2986 15.2556H23.1409C23.6427 15.2556 24.1238 15.4549 24.4786 15.8097C24.8334 16.1645 25.0327 16.6457 25.0327 17.1474L25.0327 19.5457Z" fill="#919EAB"/>
</svg>
